<svg width="41" height="41" viewBox="0 0 41 41" fill="none" xmlns="http://www.w3.org/2000/svg">
<circle cx="20.5" cy="20.5" r="20.5" fill="white"/>
<path d="M23.144 20.336C23.816 20.448 24.4 20.704 24.896 21.104C25.392 21.488 25.776 21.984 26.048 22.592C26.336 23.2 26.48 23.872 26.48 24.608C26.48 25.6 26.224 26.464 25.712 27.2C25.2 27.936 24.472 28.504 23.528 28.904C22.6 29.32 21.504 29.528 20.24 29.528C19.024 29.528 17.944 29.328 17 28.928C16.072 28.544 15.296 27.976 14.672 27.224L16.496 24.944C16.912 25.456 17.408 25.856 17.984 26.144C18.576 26.448 19.296 26.6 20.144 26.6C21.12 26.6 21.864 26.4 22.376 26C22.888 25.616 23.144 25.032 23.144 24.248C23.144 23.416 22.848 22.776 22.256 22.328C21.664 21.88 20.768 21.656 19.568 21.656H18.896V19.256H19.64C20.616 19.256 21.376 19.032 21.92 18.584C22.48 18.136 22.76 17.576 22.76 16.904C22.76 16.472 22.656 16.112 22.448 15.824C22.24 15.536 21.952 15.32 21.584 15.176C21.232 15.032 20.816 14.96 20.336 14.96C19.616 14.96 18.96 15.128 18.368 15.464C17.776 15.8 17.296 16.272 16.928 16.88L14.912 14.624C15.248 14.128 15.704 13.704 16.28 13.352C16.872 12.984 17.544 12.696 18.296 12.488C19.064 12.28 19.864 12.176 20.696 12.176C21.784 12.176 22.736 12.352 23.552 12.704C24.384 13.056 25.032 13.552 25.496 14.192C25.96 14.832 26.192 15.576 26.192 16.424C26.192 17.048 26.064 17.64 25.808 18.2C25.552 18.76 25.192 19.232 24.728 19.616C24.28 19.984 23.752 20.224 23.144 20.336Z" fill="black"/>
</svg>
