<svg width="41" height="41" viewBox="0 0 41 41" fill="none" xmlns="http://www.w3.org/2000/svg">
<circle cx="20.5" cy="20.5" r="20.5" fill="white"/>
<path d="M26.28 25.096V28H16.536V25.096H19.944V17.824C19.8 18.016 19.576 18.216 19.272 18.424C18.968 18.616 18.624 18.8 18.24 18.976C17.856 19.152 17.472 19.296 17.088 19.408C16.704 19.52 16.36 19.576 16.056 19.576V16.576C16.344 16.576 16.688 16.488 17.088 16.312C17.504 16.12 17.912 15.896 18.312 15.64C18.728 15.384 19.08 15.136 19.368 14.896C19.672 14.64 19.864 14.44 19.944 14.296H23.232V25.096H26.28Z" fill="black"/>
</svg>
