<svg width="41" height="41" viewBox="0 0 41 41" fill="none" xmlns="http://www.w3.org/2000/svg">
<circle cx="20.5" cy="20.5" r="20.5" fill="white"/>
<path d="M14.912 28C14.912 27.28 14.968 26.632 15.08 26.056C15.192 25.48 15.384 24.944 15.656 24.448C15.944 23.952 16.328 23.488 16.808 23.056C17.304 22.608 17.928 22.176 18.68 21.76C19.336 21.408 19.912 21.104 20.408 20.848C20.904 20.576 21.32 20.328 21.656 20.104C22.008 19.88 22.272 19.656 22.448 19.432C22.624 19.192 22.712 18.92 22.712 18.616C22.712 18.296 22.624 18.008 22.448 17.752C22.272 17.48 22.024 17.264 21.704 17.104C21.384 16.944 20.984 16.864 20.504 16.864C20.12 16.864 19.76 16.912 19.424 17.008C19.104 17.104 18.8 17.24 18.512 17.416C18.24 17.592 17.984 17.792 17.744 18.016C17.504 18.224 17.288 18.448 17.096 18.688L15.056 16.336C15.28 16.112 15.576 15.872 15.944 15.616C16.328 15.344 16.776 15.096 17.288 14.872C17.816 14.632 18.392 14.44 19.016 14.296C19.656 14.136 20.336 14.056 21.056 14.056C22.144 14.056 23.072 14.232 23.84 14.584C24.608 14.92 25.192 15.392 25.592 16C26.008 16.608 26.216 17.32 26.216 18.136C26.216 18.696 26.112 19.192 25.904 19.624C25.696 20.056 25.432 20.44 25.112 20.776C24.792 21.096 24.44 21.384 24.056 21.64C23.688 21.896 23.328 22.12 22.976 22.312C22.48 22.568 22.032 22.808 21.632 23.032C21.232 23.24 20.88 23.456 20.576 23.68C20.272 23.888 20 24.104 19.76 24.328C19.536 24.552 19.336 24.808 19.16 25.096H26.48V28H14.912Z" fill="black"/>
</svg>
